<?xml version="1.0" encoding="UTF-8" standalone="no"?>
<svg
   xmlns:dc="http://purl.org/dc/elements/1.1/"
   xmlns:cc="http://creativecommons.org/ns#"
   xmlns:rdf="http://www.w3.org/1999/02/22-rdf-syntax-ns#"
   xmlns:svg="http://www.w3.org/2000/svg"
   xmlns="http://www.w3.org/2000/svg"
   id="svg8"
   version="1.1"
   viewBox="0 0 210 297"
   height="297mm"
   width="210mm">
  <defs
     id="defs2" />
  <metadata
     id="metadata5">
    <rdf:RDF>
      <cc:Work
         rdf:about="">
        <dc:format>image/svg+xml</dc:format>
        <dc:type
           rdf:resource="http://purl.org/dc/dcmitype/StillImage" />
        <dc:title></dc:title>
      </cc:Work>
    </rdf:RDF>
  </metadata>
  <g
     id="layer1">
    <path
       id="path14"
       d="M 81.249934,52.181111 177.46696,134.50013 194.57221,276.68751 32.072344,260.65134 12.828936,178.33233 55.592061,122.74027 26.726951,61.802816 29.934185,12.625223 67.35192,11.556145 Z"
       style="fill:none;stroke:#000000;stroke-width:0.26458332px;stroke-linecap:butt;stroke-linejoin:miter;stroke-opacity:1" />
    <path
       transform="scale(0.26458333)"
       id="path22"
       d="M 435.41873,1014.0477 C 274.2994,997.81342 138.08331,983.94484 132.71631,983.2286 123.34229,981.97759 121.55737,975.96112 87.377348,830.40343 67.807923,747.06584 52.506037,676.84109 53.373157,674.3484 c 1.293497,-3.71842 34.100855,-46.93286 156.373713,-205.97831 2.08067,-2.7064 -17.98887,-49.23611 -51.41337,-119.198 l -54.82629,-114.75866 5.79878,-90.02413 c 3.18933,-49.513274 6.60047,-90.825829 7.58032,-91.805679 0.97985,-0.97985 31.84247,-3.01366 68.5836,-4.519577 l 66.80205,-2.738031 25.91347,76.025657 25.91347,76.02566 181.14278,155.40637 c 99.62856,85.47351 181.86604,157.44626 182.75001,159.9394 0.88396,2.49318 15.2647,119.08434 31.95718,259.09148 16.69253,140.00714 31.02599,258.64952 31.85221,263.64982 0.82619,5.0003 0.39073,8.8684 -0.96796,8.5958 -1.35858,-0.2726 -134.29506,-13.7782 -295.41439,-30.0125 z"
       style="fill:#f2f2f2;stroke-width:4.04061031" />
  </g>
</svg>
